<mxfile host="app.diagrams.net" agent="Mozilla/5.0 (Windows NT 10.0; Win64; x64) AppleWebKit/537.36 (KHTML, like Gecko) Chrome/130.0.0.0 Safari/537.36" version="24.8.3">
  <diagram name="Seite-1" id="1Z7LYz_XkWljA0MQo1xH">
    <mxGraphModel dx="1229" dy="809" grid="1" gridSize="10" guides="1" tooltips="1" connect="1" arrows="1" fold="1" page="1" pageScale="1" pageWidth="827" pageHeight="1169" math="0" shadow="0">
      <root>
        <mxCell id="0" />
        <mxCell id="1" parent="0" />
        <mxCell id="EdpNOyAen8GI5GrMtmnI-1" value="" style="ellipse;whiteSpace=wrap;html=1;" vertex="1" parent="1">
          <mxGeometry x="320" y="20" width="160" height="80" as="geometry" />
        </mxCell>
        <mxCell id="EdpNOyAen8GI5GrMtmnI-2" value="Start&lt;div&gt;(Create&amp;nbsp; plan)&lt;/div&gt;" style="text;html=1;align=center;verticalAlign=middle;whiteSpace=wrap;rounded=0;" vertex="1" parent="1">
          <mxGeometry x="370" y="45" width="60" height="30" as="geometry" />
        </mxCell>
        <mxCell id="EdpNOyAen8GI5GrMtmnI-3" value="" style="endArrow=classic;html=1;rounded=0;exitX=0.5;exitY=1;exitDx=0;exitDy=0;" edge="1" parent="1" source="EdpNOyAen8GI5GrMtmnI-1">
          <mxGeometry width="50" height="50" relative="1" as="geometry">
            <mxPoint x="390" y="440" as="sourcePoint" />
            <mxPoint x="400" y="150" as="targetPoint" />
          </mxGeometry>
        </mxCell>
        <mxCell id="EdpNOyAen8GI5GrMtmnI-15" style="edgeStyle=orthogonalEdgeStyle;rounded=0;orthogonalLoop=1;jettySize=auto;html=1;entryX=0.5;entryY=0;entryDx=0;entryDy=0;exitX=0.568;exitY=1.026;exitDx=0;exitDy=0;exitPerimeter=0;" edge="1" parent="1" source="EdpNOyAen8GI5GrMtmnI-4" target="EdpNOyAen8GI5GrMtmnI-6">
          <mxGeometry relative="1" as="geometry">
            <mxPoint x="690" y="230" as="sourcePoint" />
            <Array as="points">
              <mxPoint x="408" y="230" />
              <mxPoint x="90" y="230" />
            </Array>
          </mxGeometry>
        </mxCell>
        <mxCell id="EdpNOyAen8GI5GrMtmnI-4" value="" style="rounded=1;whiteSpace=wrap;html=1;" vertex="1" parent="1">
          <mxGeometry x="340" y="150" width="120" height="60" as="geometry" />
        </mxCell>
        <mxCell id="EdpNOyAen8GI5GrMtmnI-5" value="set Number of Splits" style="text;html=1;align=center;verticalAlign=middle;whiteSpace=wrap;rounded=0;" vertex="1" parent="1">
          <mxGeometry x="370" y="165" width="60" height="30" as="geometry" />
        </mxCell>
        <mxCell id="EdpNOyAen8GI5GrMtmnI-6" value="number = 1" style="rhombus;whiteSpace=wrap;html=1;" vertex="1" parent="1">
          <mxGeometry x="50" y="250" width="80" height="80" as="geometry" />
        </mxCell>
        <mxCell id="EdpNOyAen8GI5GrMtmnI-8" value="number = 2" style="rhombus;whiteSpace=wrap;html=1;" vertex="1" parent="1">
          <mxGeometry x="150" y="250" width="80" height="80" as="geometry" />
        </mxCell>
        <mxCell id="EdpNOyAen8GI5GrMtmnI-9" value="number = 3" style="rhombus;whiteSpace=wrap;html=1;" vertex="1" parent="1">
          <mxGeometry x="250" y="250" width="80" height="80" as="geometry" />
        </mxCell>
        <mxCell id="EdpNOyAen8GI5GrMtmnI-10" value="number = 4" style="rhombus;whiteSpace=wrap;html=1;" vertex="1" parent="1">
          <mxGeometry x="350" y="250" width="80" height="80" as="geometry" />
        </mxCell>
        <mxCell id="EdpNOyAen8GI5GrMtmnI-12" value="number = 6" style="rhombus;whiteSpace=wrap;html=1;" vertex="1" parent="1">
          <mxGeometry x="550" y="250" width="80" height="80" as="geometry" />
        </mxCell>
        <mxCell id="EdpNOyAen8GI5GrMtmnI-13" value="number = 7" style="rhombus;whiteSpace=wrap;html=1;" vertex="1" parent="1">
          <mxGeometry x="650" y="250" width="80" height="80" as="geometry" />
        </mxCell>
        <mxCell id="EdpNOyAen8GI5GrMtmnI-17" value="" style="endArrow=classic;html=1;rounded=0;entryX=0.5;entryY=0;entryDx=0;entryDy=0;" edge="1" parent="1" target="EdpNOyAen8GI5GrMtmnI-8">
          <mxGeometry width="50" height="50" relative="1" as="geometry">
            <mxPoint x="190" y="230" as="sourcePoint" />
            <mxPoint x="440" y="390" as="targetPoint" />
          </mxGeometry>
        </mxCell>
        <mxCell id="EdpNOyAen8GI5GrMtmnI-18" value="" style="endArrow=classic;html=1;rounded=0;entryX=0.5;entryY=0;entryDx=0;entryDy=0;" edge="1" parent="1">
          <mxGeometry width="50" height="50" relative="1" as="geometry">
            <mxPoint x="489.5" y="230" as="sourcePoint" />
            <mxPoint x="489.5" y="250" as="targetPoint" />
          </mxGeometry>
        </mxCell>
        <mxCell id="EdpNOyAen8GI5GrMtmnI-19" value="" style="endArrow=classic;html=1;rounded=0;entryX=0.5;entryY=0;entryDx=0;entryDy=0;" edge="1" parent="1">
          <mxGeometry width="50" height="50" relative="1" as="geometry">
            <mxPoint x="289.5" y="230" as="sourcePoint" />
            <mxPoint x="289.5" y="250" as="targetPoint" />
          </mxGeometry>
        </mxCell>
        <mxCell id="EdpNOyAen8GI5GrMtmnI-20" value="" style="endArrow=classic;html=1;rounded=0;entryX=0.5;entryY=0;entryDx=0;entryDy=0;" edge="1" parent="1">
          <mxGeometry width="50" height="50" relative="1" as="geometry">
            <mxPoint x="389.5" y="230" as="sourcePoint" />
            <mxPoint x="389.5" y="250" as="targetPoint" />
          </mxGeometry>
        </mxCell>
        <mxCell id="EdpNOyAen8GI5GrMtmnI-26" value="" style="endArrow=classic;html=1;rounded=0;entryX=0.5;entryY=0;entryDx=0;entryDy=0;" edge="1" parent="1" source="EdpNOyAen8GI5GrMtmnI-11">
          <mxGeometry width="50" height="50" relative="1" as="geometry">
            <mxPoint x="509.5" y="250" as="sourcePoint" />
            <mxPoint x="509.5" y="270" as="targetPoint" />
          </mxGeometry>
        </mxCell>
        <mxCell id="EdpNOyAen8GI5GrMtmnI-27" value="" style="endArrow=classic;html=1;rounded=0;entryX=0.5;entryY=0;entryDx=0;entryDy=0;" edge="1" parent="1" target="EdpNOyAen8GI5GrMtmnI-12">
          <mxGeometry width="50" height="50" relative="1" as="geometry">
            <mxPoint x="590" y="230" as="sourcePoint" />
            <mxPoint x="509.5" y="270" as="targetPoint" />
          </mxGeometry>
        </mxCell>
        <mxCell id="EdpNOyAen8GI5GrMtmnI-11" value="number = 5" style="rhombus;whiteSpace=wrap;html=1;" vertex="1" parent="1">
          <mxGeometry x="450" y="250" width="80" height="80" as="geometry" />
        </mxCell>
        <mxCell id="EdpNOyAen8GI5GrMtmnI-28" value="" style="endArrow=classic;html=1;rounded=0;entryX=0.5;entryY=0;entryDx=0;entryDy=0;" edge="1" parent="1" target="EdpNOyAen8GI5GrMtmnI-13">
          <mxGeometry width="50" height="50" relative="1" as="geometry">
            <mxPoint x="690" y="230" as="sourcePoint" />
            <mxPoint x="440" y="390" as="targetPoint" />
          </mxGeometry>
        </mxCell>
        <mxCell id="EdpNOyAen8GI5GrMtmnI-29" value="" style="endArrow=none;html=1;rounded=0;" edge="1" parent="1">
          <mxGeometry width="50" height="50" relative="1" as="geometry">
            <mxPoint x="410" y="230" as="sourcePoint" />
            <mxPoint x="690" y="230" as="targetPoint" />
          </mxGeometry>
        </mxCell>
        <mxCell id="EdpNOyAen8GI5GrMtmnI-30" value="" style="endArrow=classic;html=1;rounded=0;exitX=0.5;exitY=1;exitDx=0;exitDy=0;entryX=0.5;entryY=0;entryDx=0;entryDy=0;" edge="1" parent="1" source="EdpNOyAen8GI5GrMtmnI-6" target="EdpNOyAen8GI5GrMtmnI-31">
          <mxGeometry width="50" height="50" relative="1" as="geometry">
            <mxPoint x="390" y="440" as="sourcePoint" />
            <mxPoint x="90" y="360" as="targetPoint" />
          </mxGeometry>
        </mxCell>
        <mxCell id="EdpNOyAen8GI5GrMtmnI-31" value="set Training 7 Name" style="rounded=1;whiteSpace=wrap;html=1;" vertex="1" parent="1">
          <mxGeometry x="50" y="900" width="80" height="40" as="geometry" />
        </mxCell>
        <mxCell id="EdpNOyAen8GI5GrMtmnI-32" value="" style="endArrow=classic;html=1;rounded=0;exitX=0.5;exitY=1;exitDx=0;exitDy=0;" edge="1" parent="1" source="EdpNOyAen8GI5GrMtmnI-31">
          <mxGeometry width="50" height="50" relative="1" as="geometry">
            <mxPoint x="390" y="980" as="sourcePoint" />
            <mxPoint x="90" y="990" as="targetPoint" />
          </mxGeometry>
        </mxCell>
        <mxCell id="EdpNOyAen8GI5GrMtmnI-34" value="set Training 7 Exercises" style="rounded=1;whiteSpace=wrap;html=1;" vertex="1" parent="1">
          <mxGeometry x="50" y="990" width="80" height="40" as="geometry" />
        </mxCell>
        <mxCell id="EdpNOyAen8GI5GrMtmnI-36" value="set Training 1 Name" style="rounded=1;whiteSpace=wrap;html=1;" vertex="1" parent="1">
          <mxGeometry x="650" y="360" width="80" height="40" as="geometry" />
        </mxCell>
        <mxCell id="EdpNOyAen8GI5GrMtmnI-37" value="" style="endArrow=classic;html=1;rounded=0;exitX=0.5;exitY=1;exitDx=0;exitDy=0;" edge="1" parent="1" source="EdpNOyAen8GI5GrMtmnI-36">
          <mxGeometry width="50" height="50" relative="1" as="geometry">
            <mxPoint x="990" y="440" as="sourcePoint" />
            <mxPoint x="690" y="450" as="targetPoint" />
          </mxGeometry>
        </mxCell>
        <mxCell id="EdpNOyAen8GI5GrMtmnI-38" value="set Training 1 Exercises" style="rounded=1;whiteSpace=wrap;html=1;" vertex="1" parent="1">
          <mxGeometry x="650" y="450" width="80" height="40" as="geometry" />
        </mxCell>
        <mxCell id="EdpNOyAen8GI5GrMtmnI-39" value="set Training 2 Name" style="rounded=1;whiteSpace=wrap;html=1;" vertex="1" parent="1">
          <mxGeometry x="550" y="450" width="80" height="40" as="geometry" />
        </mxCell>
        <mxCell id="EdpNOyAen8GI5GrMtmnI-40" value="" style="endArrow=classic;html=1;rounded=0;exitX=0.5;exitY=1;exitDx=0;exitDy=0;" edge="1" parent="1" source="EdpNOyAen8GI5GrMtmnI-39">
          <mxGeometry width="50" height="50" relative="1" as="geometry">
            <mxPoint x="890" y="530" as="sourcePoint" />
            <mxPoint x="590" y="540" as="targetPoint" />
          </mxGeometry>
        </mxCell>
        <mxCell id="EdpNOyAen8GI5GrMtmnI-41" value="set Training 2 Exercises" style="rounded=1;whiteSpace=wrap;html=1;" vertex="1" parent="1">
          <mxGeometry x="550" y="540" width="80" height="40" as="geometry" />
        </mxCell>
        <mxCell id="EdpNOyAen8GI5GrMtmnI-42" value="set Training 3 Name" style="rounded=1;whiteSpace=wrap;html=1;" vertex="1" parent="1">
          <mxGeometry x="450" y="540" width="80" height="40" as="geometry" />
        </mxCell>
        <mxCell id="EdpNOyAen8GI5GrMtmnI-43" value="" style="endArrow=classic;html=1;rounded=0;exitX=0.5;exitY=1;exitDx=0;exitDy=0;" edge="1" parent="1" source="EdpNOyAen8GI5GrMtmnI-42">
          <mxGeometry width="50" height="50" relative="1" as="geometry">
            <mxPoint x="790" y="620" as="sourcePoint" />
            <mxPoint x="490" y="630" as="targetPoint" />
          </mxGeometry>
        </mxCell>
        <mxCell id="EdpNOyAen8GI5GrMtmnI-44" value="set Training 3 Exercises" style="rounded=1;whiteSpace=wrap;html=1;" vertex="1" parent="1">
          <mxGeometry x="450" y="630" width="80" height="40" as="geometry" />
        </mxCell>
        <mxCell id="EdpNOyAen8GI5GrMtmnI-45" value="set Training 4 Name" style="rounded=1;whiteSpace=wrap;html=1;" vertex="1" parent="1">
          <mxGeometry x="350" y="630" width="80" height="40" as="geometry" />
        </mxCell>
        <mxCell id="EdpNOyAen8GI5GrMtmnI-46" value="" style="endArrow=classic;html=1;rounded=0;exitX=0.5;exitY=1;exitDx=0;exitDy=0;" edge="1" parent="1" source="EdpNOyAen8GI5GrMtmnI-45">
          <mxGeometry width="50" height="50" relative="1" as="geometry">
            <mxPoint x="690" y="710" as="sourcePoint" />
            <mxPoint x="390" y="720" as="targetPoint" />
          </mxGeometry>
        </mxCell>
        <mxCell id="EdpNOyAen8GI5GrMtmnI-47" value="set Training 4 Exercises" style="rounded=1;whiteSpace=wrap;html=1;" vertex="1" parent="1">
          <mxGeometry x="350" y="720" width="80" height="40" as="geometry" />
        </mxCell>
        <mxCell id="EdpNOyAen8GI5GrMtmnI-48" value="set Training 5 Name" style="rounded=1;whiteSpace=wrap;html=1;" vertex="1" parent="1">
          <mxGeometry x="250" y="720" width="80" height="40" as="geometry" />
        </mxCell>
        <mxCell id="EdpNOyAen8GI5GrMtmnI-49" value="" style="endArrow=classic;html=1;rounded=0;exitX=0.5;exitY=1;exitDx=0;exitDy=0;" edge="1" parent="1" source="EdpNOyAen8GI5GrMtmnI-48">
          <mxGeometry width="50" height="50" relative="1" as="geometry">
            <mxPoint x="590" y="800" as="sourcePoint" />
            <mxPoint x="290" y="810" as="targetPoint" />
          </mxGeometry>
        </mxCell>
        <mxCell id="EdpNOyAen8GI5GrMtmnI-50" value="set Training 5 Exercises" style="rounded=1;whiteSpace=wrap;html=1;" vertex="1" parent="1">
          <mxGeometry x="250" y="810" width="80" height="40" as="geometry" />
        </mxCell>
        <mxCell id="EdpNOyAen8GI5GrMtmnI-51" value="set Training 6 Name" style="rounded=1;whiteSpace=wrap;html=1;" vertex="1" parent="1">
          <mxGeometry x="150" y="810" width="80" height="40" as="geometry" />
        </mxCell>
        <mxCell id="EdpNOyAen8GI5GrMtmnI-52" value="" style="endArrow=classic;html=1;rounded=0;exitX=0.5;exitY=1;exitDx=0;exitDy=0;" edge="1" parent="1" source="EdpNOyAen8GI5GrMtmnI-51">
          <mxGeometry width="50" height="50" relative="1" as="geometry">
            <mxPoint x="490" y="890" as="sourcePoint" />
            <mxPoint x="190" y="900" as="targetPoint" />
          </mxGeometry>
        </mxCell>
        <mxCell id="EdpNOyAen8GI5GrMtmnI-53" value="set Training 6 Exercises" style="rounded=1;whiteSpace=wrap;html=1;" vertex="1" parent="1">
          <mxGeometry x="150" y="900" width="80" height="40" as="geometry" />
        </mxCell>
        <mxCell id="EdpNOyAen8GI5GrMtmnI-54" value="" style="endArrow=classic;html=1;rounded=0;exitX=0.5;exitY=1;exitDx=0;exitDy=0;entryX=0.5;entryY=0;entryDx=0;entryDy=0;" edge="1" parent="1" source="EdpNOyAen8GI5GrMtmnI-10" target="EdpNOyAen8GI5GrMtmnI-45">
          <mxGeometry width="50" height="50" relative="1" as="geometry">
            <mxPoint x="380" y="690" as="sourcePoint" />
            <mxPoint x="430" y="640" as="targetPoint" />
          </mxGeometry>
        </mxCell>
        <mxCell id="EdpNOyAen8GI5GrMtmnI-55" value="" style="endArrow=classic;html=1;rounded=0;exitX=0.5;exitY=1;exitDx=0;exitDy=0;entryX=0.5;entryY=0;entryDx=0;entryDy=0;" edge="1" parent="1" source="EdpNOyAen8GI5GrMtmnI-8" target="EdpNOyAen8GI5GrMtmnI-51">
          <mxGeometry width="50" height="50" relative="1" as="geometry">
            <mxPoint x="380" y="690" as="sourcePoint" />
            <mxPoint x="430" y="640" as="targetPoint" />
          </mxGeometry>
        </mxCell>
        <mxCell id="EdpNOyAen8GI5GrMtmnI-56" value="" style="endArrow=classic;html=1;rounded=0;exitX=0.5;exitY=1;exitDx=0;exitDy=0;entryX=0.5;entryY=0;entryDx=0;entryDy=0;" edge="1" parent="1" source="EdpNOyAen8GI5GrMtmnI-9" target="EdpNOyAen8GI5GrMtmnI-48">
          <mxGeometry width="50" height="50" relative="1" as="geometry">
            <mxPoint x="380" y="690" as="sourcePoint" />
            <mxPoint x="430" y="640" as="targetPoint" />
          </mxGeometry>
        </mxCell>
        <mxCell id="EdpNOyAen8GI5GrMtmnI-57" value="" style="endArrow=classic;html=1;rounded=0;exitX=0.5;exitY=1;exitDx=0;exitDy=0;entryX=0.5;entryY=0;entryDx=0;entryDy=0;" edge="1" parent="1" source="EdpNOyAen8GI5GrMtmnI-11" target="EdpNOyAen8GI5GrMtmnI-42">
          <mxGeometry width="50" height="50" relative="1" as="geometry">
            <mxPoint x="380" y="690" as="sourcePoint" />
            <mxPoint x="430" y="640" as="targetPoint" />
          </mxGeometry>
        </mxCell>
        <mxCell id="EdpNOyAen8GI5GrMtmnI-58" value="" style="endArrow=classic;html=1;rounded=0;exitX=0.5;exitY=1;exitDx=0;exitDy=0;entryX=0.5;entryY=0;entryDx=0;entryDy=0;" edge="1" parent="1" source="EdpNOyAen8GI5GrMtmnI-12" target="EdpNOyAen8GI5GrMtmnI-39">
          <mxGeometry width="50" height="50" relative="1" as="geometry">
            <mxPoint x="380" y="690" as="sourcePoint" />
            <mxPoint x="430" y="640" as="targetPoint" />
          </mxGeometry>
        </mxCell>
        <mxCell id="EdpNOyAen8GI5GrMtmnI-59" value="" style="endArrow=classic;html=1;rounded=0;entryX=0.5;entryY=0;entryDx=0;entryDy=0;exitX=0.5;exitY=1;exitDx=0;exitDy=0;" edge="1" parent="1" source="EdpNOyAen8GI5GrMtmnI-13" target="EdpNOyAen8GI5GrMtmnI-36">
          <mxGeometry width="50" height="50" relative="1" as="geometry">
            <mxPoint x="380" y="690" as="sourcePoint" />
            <mxPoint x="430" y="640" as="targetPoint" />
          </mxGeometry>
        </mxCell>
        <mxCell id="EdpNOyAen8GI5GrMtmnI-60" value="" style="endArrow=classic;html=1;rounded=0;exitX=0;exitY=0.5;exitDx=0;exitDy=0;entryX=1;entryY=0.5;entryDx=0;entryDy=0;" edge="1" parent="1" source="EdpNOyAen8GI5GrMtmnI-38" target="EdpNOyAen8GI5GrMtmnI-39">
          <mxGeometry width="50" height="50" relative="1" as="geometry">
            <mxPoint x="380" y="690" as="sourcePoint" />
            <mxPoint x="430" y="640" as="targetPoint" />
          </mxGeometry>
        </mxCell>
        <mxCell id="EdpNOyAen8GI5GrMtmnI-61" value="" style="endArrow=classic;html=1;rounded=0;exitX=0;exitY=0.5;exitDx=0;exitDy=0;entryX=1;entryY=0.5;entryDx=0;entryDy=0;" edge="1" parent="1" source="EdpNOyAen8GI5GrMtmnI-41" target="EdpNOyAen8GI5GrMtmnI-42">
          <mxGeometry width="50" height="50" relative="1" as="geometry">
            <mxPoint x="380" y="690" as="sourcePoint" />
            <mxPoint x="430" y="640" as="targetPoint" />
          </mxGeometry>
        </mxCell>
        <mxCell id="EdpNOyAen8GI5GrMtmnI-62" value="" style="endArrow=classic;html=1;rounded=0;exitX=0;exitY=0.5;exitDx=0;exitDy=0;entryX=1;entryY=0.5;entryDx=0;entryDy=0;" edge="1" parent="1" source="EdpNOyAen8GI5GrMtmnI-44" target="EdpNOyAen8GI5GrMtmnI-45">
          <mxGeometry width="50" height="50" relative="1" as="geometry">
            <mxPoint x="380" y="690" as="sourcePoint" />
            <mxPoint x="430" y="640" as="targetPoint" />
          </mxGeometry>
        </mxCell>
        <mxCell id="EdpNOyAen8GI5GrMtmnI-63" value="" style="endArrow=classic;html=1;rounded=0;exitX=0;exitY=0.5;exitDx=0;exitDy=0;entryX=1;entryY=0.5;entryDx=0;entryDy=0;" edge="1" parent="1" source="EdpNOyAen8GI5GrMtmnI-47" target="EdpNOyAen8GI5GrMtmnI-48">
          <mxGeometry width="50" height="50" relative="1" as="geometry">
            <mxPoint x="460" y="660" as="sourcePoint" />
            <mxPoint x="440" y="660" as="targetPoint" />
          </mxGeometry>
        </mxCell>
        <mxCell id="EdpNOyAen8GI5GrMtmnI-64" value="" style="endArrow=classic;html=1;rounded=0;exitX=0;exitY=0.5;exitDx=0;exitDy=0;entryX=1;entryY=0.5;entryDx=0;entryDy=0;" edge="1" parent="1" source="EdpNOyAen8GI5GrMtmnI-50" target="EdpNOyAen8GI5GrMtmnI-51">
          <mxGeometry width="50" height="50" relative="1" as="geometry">
            <mxPoint x="380" y="690" as="sourcePoint" />
            <mxPoint x="430" y="640" as="targetPoint" />
          </mxGeometry>
        </mxCell>
        <mxCell id="EdpNOyAen8GI5GrMtmnI-65" value="" style="endArrow=classic;html=1;rounded=0;exitX=0;exitY=0.5;exitDx=0;exitDy=0;entryX=1;entryY=0.5;entryDx=0;entryDy=0;" edge="1" parent="1" source="EdpNOyAen8GI5GrMtmnI-53" target="EdpNOyAen8GI5GrMtmnI-31">
          <mxGeometry width="50" height="50" relative="1" as="geometry">
            <mxPoint x="380" y="690" as="sourcePoint" />
            <mxPoint x="430" y="640" as="targetPoint" />
          </mxGeometry>
        </mxCell>
        <mxCell id="EdpNOyAen8GI5GrMtmnI-66" value="" style="endArrow=classic;html=1;rounded=0;exitX=0.5;exitY=1;exitDx=0;exitDy=0;" edge="1" parent="1" source="EdpNOyAen8GI5GrMtmnI-34">
          <mxGeometry width="50" height="50" relative="1" as="geometry">
            <mxPoint x="340" y="910" as="sourcePoint" />
            <mxPoint x="90" y="1080" as="targetPoint" />
          </mxGeometry>
        </mxCell>
        <mxCell id="EdpNOyAen8GI5GrMtmnI-67" value="Stop" style="ellipse;whiteSpace=wrap;html=1;" vertex="1" parent="1">
          <mxGeometry x="15" y="1080" width="150" height="80" as="geometry" />
        </mxCell>
      </root>
    </mxGraphModel>
  </diagram>
</mxfile>
